<svg xmlns="http://www.w3.org/2000/svg" viewBox="0 0 640 640"><!--! Font Awesome Pro 7.0.1 by @fontawesome - https://fontawesome.com License - https://fontawesome.com/license (Commercial License) Copyright 2025 Fonticons, Inc. --><path fill="currentColor" d="M309.1 71.2C315.2 65.5 324.8 65.5 330.9 71.2L565.5 290.2C568.7 293.2 568.9 298.3 565.9 301.5C562.9 304.7 557.8 304.9 554.6 301.9L528 277.1L528 520C528 550.9 502.9 576 472 576L168 576C137.1 576 112 550.9 112 520L112 277.1L85.5 301.9C82.3 304.9 77.2 304.7 74.2 301.5C71.2 298.3 71.4 293.2 74.6 290.2L309.1 71.2zM320 82.9L128 262.1L128 520C128 542.1 145.9 560 168 560L240 560L240 440C240 409.1 265.1 384 296 384L344 384C374.9 384 400 409.1 400 440L400 560L472 560C494.1 560 512 542.1 512 520L512 262.1L320 82.9zM256 560L384 560L384 440C384 417.9 366.1 400 344 400L296 400C273.9 400 256 417.9 256 440L256 560z"/></svg>